<?xml version="1.0" encoding="utf-8"?>
<!-- Generated by IcoMoon.io -->
<!DOCTYPE svg PUBLIC "-//W3C//DTD SVG 1.1//EN" "http://www.w3.org/Graphics/SVG/1.1/DTD/svg11.dtd">
<svg version="1.1" xmlns="http://www.w3.org/2000/svg" xmlns:xlink="http://www.w3.org/1999/xlink" width="1024" height="1024" viewBox="0 0 1024 1024">
	<path d="M634.761 28.308c23.132-2.974 47.886 0.505 68.85 10.814 28.023 11.934 49.89 34.969 63.716 61.901 8.364 18.382 13.701 38.256 14.182 58.517 0.532 26.097-8.855 51.486-22.602 73.321-16.81 26.381-44.062 45.119-73.79 54.071-21.71 5.099-44.95 7.442-66.642 1.1-9.819-2.591-19.073-6.844-28.451-10.666-6.458-2.548-14.155-2.743-20.273 0.809-7.974 4.157-15.194 9.609-22.759 14.439-19.876 12.742-39.924 25.245-59.069 39.081 30.355 16.368 57.47 38.502 80.077 64.494 19.394 21.694 34.501 46.663 48.999 71.766 12.735 22.431 26.196 44.444 38.752 66.989 3.622 6.091 8.657 11.945 15.302 14.802 10.372 2.362 21.178 2.256 31.522 4.938 17.902 3.492 35.199 10.389 50.277 20.723 31.077 21.569 52.763 56.521 56.662 94.313 5.523 42.694-12.519 86.951-44.738 115.111-28.896 26-69.715 36.743-107.89 31.239-37.951-6.625-73.843-29.259-93.318-62.923-17.839-28.992-22.774-65.071-15.682-98.158 3.223-14.98 10.842-28.388 18.292-41.593 3.791-6.189 9.182-12.29 8.837-20.078 0.717-6.81-3.926-12.317-6.706-18.043-8.514-16.117-18.187-31.558-27.217-47.391-15.708-25.875-29.669-53.297-50.659-75.442-16.054-17.025-35.022-31.505-56.145-41.627-29.95-16.012-64.218-23.398-98.094-22.609-21.063-0.24-41.627 4.999-61.572 11.281-33.725 11.977-64.593 32.197-88.166 59.209-9.652 11.615-19.207 23.487-26.019 37.047-13.125 24.722-20.798 52.125-24.022 79.855-5.186 53.207 12.492 107.829 46.486 148.895 26.401 32.332 63.020 56.621 103.645 66.723 7.725 2.195 16.384 3.072 22.742 8.435 4.893 3.73 8.791 8.621 11.821 13.95 11.749 20.175 23.637 40.279 35.483 60.401 1.953 3.782 4.791 8.093 4.679 12.646-0.161 6.583-2.229 9.299-12.653 10.327-41.393 4.085-97.597-8.905-140.637-31.471-30.688-15.363-59.033-35.414-83.018-60.013-35.493-37.651-62.576-83.754-75.497-134.013-3.019-12.295-6.164-24.633-7.185-37.296-2.619-30.618-2.886-61.626 2.043-92.047 9.182-53.651 34.765-103.715 69.821-145.061 28.191-33.066 63.997-59.54 103.54-77.486 14.51-5.904 29.074-11.792 44.133-16.16 40.572-10.187 83.774-8.134 123.073-23.709 22.137-9.153 42.097-22.634 62.274-35.394 19.012-12.777 38.565-24.739 57.751-37.25 8.14-4.945 14.971-13.853 13.995-23.833-0.56-14.138-2.329-28.352-0.362-42.454 1.642-17.979 9.394-34.633 18.247-50.087 20.27-34.916 58.407-57.229 97.963-62.389M642.956 96.546c-28.894 2.452-53.865 27.146-56.91 55.945-2.033 23.184 8.987 47.552 28.977 59.929 13.107 8.641 29.383 11.437 44.807 9.287 26.771-5.199 49.646-28.522 52.409-55.971 0.887-14.412-2.575-29.392-11.090-41.201-12.688-18.522-35.493-30.834-58.188-27.988M672.207 623.009c-19.268 1.935-37.241 13.418-47.241 29.968-10.747 16.357-11.643 38.068-3.667 55.746 9.972 23.684 35.867 39.514 61.51 36.851 30.049-2.335 56.075-29.559 56.385-59.815-0.676-10.869-2.417-22.129-8.356-31.481-11.95-19.846-35.199-33.398-58.636-31.276z" />
	<path d="M672.373 390.607c25.379-2.505 51.227-2.219 76.178 3.489 28.753 6.367 55.685 19.073 81.33 33.236 72.325 40.734 125.497 113.447 142.866 194.556 9.218 43.091 10.45 88.372 0.276 131.413-4.741 20.441-11.222 40.554-20.556 59.397-11.934 24.338-25.566 48.048-42.97 68.934-43.174 52.063-104.763 88.131-170.901 101.763-17.138 3.561-34.667 4.263-52.071 5.399-50.401 0.887-102.073-8.587-146.144-33.901-52.336-25.041-94.613-68.046-124.006-117.603-15.76-26.941-31.471-53.909-46.77-81.108-3.639-5.958-6.501-12.742-12.112-17.173-4.199-3.953-9.724-6.491-15.469-6.99-45.615-3.907-89.73-30.758-110.687-72.016-19.668-36.745-18.895-83.044 0.080-119.932 17.483-36.967 53.411-64.574 93.788-71.322 42.23-7.903 87.802 6.714 118.18 36.949 12.441 13.071 23.317 28.167 29.321 45.314 8.657 22.794 10.975 48.010 6.917 72.039-3.313 21.134-14.218 40.029-26.062 57.49-2.763 3.953-4.812 8.391-5.363 13.239-0.246 8.463 5.329 15.423 9.377 22.357 11.934 21.604 24.979 42.588 36.993 64.155 23.798 44.291 62.993 80.813 110.358 98.467 19.332 7.138 39.657 11.607 60.185 13.417 81.996 5.923 165.092-42.933 199.591-117.594 9.795-23.308 16.951-48.010 18.932-73.295 5.764-69.308-28.246-138.923-83.159-180.631-21.985-16.259-47.338-27.514-73.703-34.48-5.391-1.483-11.253-2.105-15.805-5.648-7.042-4.147-11.622-11.171-15.664-18.051-11.57-20.129-33.713-55.925-34.006-60.189-0.294-4.265 3.997-10.71 11.069-11.683M339.225 537.836c-16.677 2.78-32.11 12.803-41.175 27.129-12.946 19.547-13.309 46.663-0.782 66.482 11.411 18.71 33.716 30.867 55.773 28.405 24.961-1.598 48.857-19.33 55.631-43.723 2.932-9.174 2.539-18.969 1.589-28.416-6.47-31.372-38.937-55.374-71.038-49.878z" />
</svg>
