<?xml version="1.0" encoding="UTF-8"?>
<!DOCTYPE svg PUBLIC "-//W3C//DTD SVG 1.1//EN" "http://www.w3.org/Graphics/SVG/1.1/DTD/svg11.dtd">
<svg version="1.1" xmlns="http://www.w3.org/2000/svg" xmlns:xlink="http://www.w3.org/1999/xlink" x="0px" y="0px" width="567" height="567" viewBox="0, 0, 567, 567">
  <g id="Ebene2">
    <path d="M353.61,13.33 C366.635,11.655 380.573,13.614 392.378,19.419 C408.158,26.139 420.47,39.11 428.255,54.275 C432.965,64.625 435.97,75.815 436.24,87.225 C436.54,101.92 431.255,116.215 423.515,128.51 C414.05,143.365 398.705,153.915 381.965,158.955 C369.74,161.825 356.655,163.145 344.44,159.575 C338.91,158.115 333.7,155.72 328.42,153.57 C324.785,152.135 320.45,152.025 317.005,154.025 C312.515,156.365 308.45,159.435 304.19,162.155 C293,169.33 281.71,176.37 270.93,184.16 C288.02,193.375 303.29,205.84 316.02,220.475 C326.94,232.69 335.445,246.75 343.61,260.885 C350.78,273.515 358.36,285.91 365.43,298.605 C367.47,302.035 370.305,305.33 374.045,306.94 C379.885,308.27 385.97,308.21 391.795,309.72 C401.875,311.685 411.615,315.57 420.105,321.39 C437.605,333.535 449.815,353.215 452.01,374.495 C455.12,398.535 444.96,423.455 426.82,439.31 C410.55,453.95 387.565,460 366.07,456.9 C344.7,453.17 324.49,440.425 313.525,421.47 C303.48,405.145 300.7,384.83 304.695,366.2 C306.51,357.765 310.8,350.215 314.995,342.78 C317.13,339.295 320.165,335.86 319.97,331.475 C320.375,327.64 317.76,324.54 316.195,321.315 C311.4,312.24 305.955,303.545 300.87,294.63 C292.025,280.06 284.165,264.62 272.345,252.15 C263.305,242.565 252.625,234.41 240.73,228.71 C223.865,219.695 204.57,215.535 185.495,215.98 C173.635,215.845 162.055,218.795 150.825,222.33 C131.835,229.075 114.455,240.46 101.18,255.67 C95.745,262.21 90.365,268.895 86.53,276.53 C79.14,290.45 74.82,305.88 73.005,321.495 C70.085,351.455 80.04,382.21 99.18,405.335 C114.045,423.54 134.665,437.215 157.54,442.905 C161.89,444.14 166.765,444.635 170.345,447.655 C173.1,449.755 175.295,452.51 177,455.51 C183.615,466.87 190.31,478.19 196.98,489.52 C198.08,491.65 199.678,494.077 199.615,496.64 C199.525,500.346 198.36,501.875 192.49,502.455 C169.18,504.756 137.535,497.44 113.3,484.735 C96.02,476.085 80.06,464.795 66.555,450.945 C46.57,429.745 31.32,403.785 24.045,375.485 C22.345,368.56 20.575,361.615 20,354.485 C18.525,337.245 18.375,319.785 21.15,302.655 C26.32,272.445 40.725,244.255 60.465,220.975 C76.34,202.355 96.5,187.45 118.765,177.345 C126.935,174.02 135.135,170.705 143.615,168.245 C166.46,162.51 190.785,163.665 212.915,154.895 C225.38,149.74 236.62,142.15 247.98,134.965 C258.685,127.77 269.695,121.035 280.5,113.99 C285.085,111.205 288.93,106.19 288.38,100.57 C288.065,92.61 287.07,84.605 288.175,76.665 C289.1,66.54 293.465,57.165 298.45,48.46 C309.865,28.8 331.34,16.235 353.61,13.33 M358.225,51.755 C341.955,53.135 327.895,67.04 326.18,83.255 C325.035,96.31 331.24,110.03 342.495,117 C349.875,121.865 359.04,123.44 367.725,122.23 C382.8,119.305 395.68,106.17 397.235,90.715 C397.735,82.6 395.785,74.165 390.99,67.515 C383.845,57.085 371.005,50.155 358.225,51.755 M374.695,348.195 C363.845,349.285 353.725,355.75 348.095,365.07 C342.045,374.28 341.54,386.505 346.03,396.46 C351.645,409.795 366.225,418.71 380.665,417.21 C397.585,415.895 412.24,400.565 412.415,383.53 C412.035,377.41 411.055,371.07 407.71,365.805 C400.98,354.63 387.89,347 374.695,348.195 z" fill="#1A448E"/>
  </g>
  <g id="Ebene1">
    <path d="M374.79,217.335 C389.08,215.925 403.635,216.085 417.685,219.3 C433.875,222.885 449.04,230.04 463.48,238.015 C504.205,260.95 534.145,301.895 543.925,347.565 C549.115,371.83 549.81,397.325 544.08,421.56 C541.41,433.07 537.76,444.395 532.505,455.005 C525.785,468.71 518.11,482.06 508.31,493.82 C484,523.135 449.32,543.445 412.08,551.12 C402.43,553.125 392.56,553.52 382.76,554.16 C354.38,554.66 325.285,549.325 300.47,535.07 C271,520.97 247.195,496.755 230.645,468.85 C221.77,453.68 212.925,438.495 204.31,423.18 C202.26,419.825 200.65,416.005 197.49,413.51 C195.125,411.285 192.015,409.855 188.78,409.575 C163.095,407.375 138.255,392.255 126.455,369.025 C115.38,348.335 115.815,322.265 126.5,301.495 C136.345,280.68 156.575,265.135 179.31,261.335 C203.09,256.885 228.75,265.115 245.855,282.14 C252.86,289.5 258.985,298 262.365,307.655 C267.24,320.49 268.545,334.69 266.26,348.22 C264.395,360.12 258.255,370.76 251.585,380.59 C250.03,382.815 248.875,385.315 248.565,388.045 C248.425,392.81 251.565,396.73 253.845,400.635 C260.565,412.8 267.91,424.615 274.675,436.76 C288.075,461.7 310.145,482.265 336.815,492.205 C347.7,496.225 359.145,498.74 370.705,499.76 C416.875,503.095 463.665,475.585 483.09,433.545 C488.605,420.42 492.635,406.51 493.75,392.275 C496.995,353.25 477.845,314.05 446.925,290.565 C434.545,281.41 420.27,275.075 405.425,271.15 C402.39,270.315 399.09,269.965 396.525,267.97 C392.56,265.635 389.98,261.68 387.705,257.805 C381.19,246.47 368.723,226.315 368.557,223.913 C368.392,221.512 370.807,217.882 374.79,217.335 M187.2,300.235 C177.81,301.8 169.12,307.445 164.015,315.51 C156.725,326.515 156.52,341.785 163.575,352.945 C170,363.48 182.56,370.325 194.98,368.94 C209.035,368.04 222.49,358.055 226.305,344.32 C227.955,339.155 227.735,333.64 227.2,328.32 C223.555,310.655 205.275,297.14 187.2,300.235 z" fill="#158EC1"/>
  </g>
  <defs/>
</svg>
