<?xml version="1.0" encoding="UTF-8" standalone="no"?>
<svg
   xmlns:dc="http://purl.org/dc/elements/1.1/"
   xmlns:cc="http://creativecommons.org/ns#"
   xmlns:rdf="http://www.w3.org/1999/02/22-rdf-syntax-ns#"
   xmlns:svg="http://www.w3.org/2000/svg"
   xmlns="http://www.w3.org/2000/svg"
   xmlns:sodipodi="http://sodipodi.sourceforge.net/DTD/sodipodi-0.dtd"
   xmlns:inkscape="http://www.inkscape.org/namespaces/inkscape"
   version="1.1"
   x="0px"
   y="0px"
   width="640"
   height="640"
   viewBox="0, 0, 640, 640"
   id="svg2"
   inkscape:version="0.48.2 r9819"
   sodipodi:docname="osmos.svg">
  <metadata
     id="metadata23">
    <rdf:RDF>
      <cc:Work
         rdf:about="">
        <dc:format>image/svg+xml</dc:format>
        <dc:type
           rdf:resource="http://purl.org/dc/dcmitype/StillImage" />
      </cc:Work>
    </rdf:RDF>
  </metadata>
  <sodipodi:namedview
     pagecolor="#ffffff"
     bordercolor="#666666"
     borderopacity="1"
     objecttolerance="10"
     gridtolerance="10"
     guidetolerance="10"
     inkscape:pageopacity="0"
     inkscape:pageshadow="2"
     inkscape:window-width="640"
     inkscape:window-height="480"
     id="namedview21"
     showgrid="false"
     inkscape:zoom="0.36875"
     inkscape:cx="320"
     inkscape:cy="320"
     inkscape:window-x="169"
     inkscape:window-y="4"
     inkscape:window-maximized="0"
     inkscape:current-layer="svg2" />
  <g
     id="#48a2d9ff"
     transform="matrix(1.3634795,0,0,1.3944989,-117.64339,-123.53178)">
    <path
       d="m 343,101 c 20,-3 40,1 57,12 26,15 37,45 52,69 -9,1 -18,-1 -27,-1 -9,-19 -30,-31 -50,-27 -11,-16 -22,-33 -35,-47 -6,-4 0,-6 3,-6 z"
       id="path5"
       inkscape:connector-curvature="0"
       style="fill:#0085cf" />
    <path
       d="m 315,111 c 1,-1 2,0 3,1 14,15 28,30 38,48 2,4 -4,5 -6,8 -7,6 -9,16 -12,24 -53,16 -103,44 -142,82 -20,-12 -49,2 -51,25 -13,4 -26,10 -38,15 -16,-31 -4,-74 24,-95 20,-15 44,-26 65,-40 40,-22 79,-45 119,-68 z"
       id="path7"
       inkscape:connector-curvature="0"
       style="fill:#0085cf" />
    <path
       d="m 428,194 c 10,0 21,-1 31,1 11,16 19,34 30,50 14,27 30,52 44,78 18,39 0,88 -38,107 -17,10 -34,21 -51,29 -6,-12 -10,-24 -17,-36 16,-20 9,-54 -14,-66 4,-40 4,-82 -6,-121 14,-9 22,-26 21,-42 z"
       id="path9"
       inkscape:connector-curvature="0"
       style="fill:#0085cf" />
    <path
       d="m 337,208 c 4,-2 3,3 5,5 6,19 26,32 45,29 4,-1 4.375,3.385 5,6 7.83,32.81 7.7,105.501 7.7,105.501 0,-10e-4 -6,-1.801 -13,-0.601 -6,1.03 -7.7,3.1 -13.7,5.1 -44,-37 -98,-62 -155,-65 -4,0 -11,0 -10,-5 35,-37 80,-64 129,-80 z"
       id="path11"
       inkscape:connector-curvature="0"
       style="fill:#0085cf" />
    <path
       d="m 212,309 c 54,1 108,22 150,57 -22,19 -13,59 14,70 -15,39 -40,75 -73,101 -33,10 -72,-6 -90,-35 -20,-34 -39,-67 -58,-101 -3,-5 -7,-9 -8,-15 6,-17 14,-34 23,-49 19,3 38,-10 42,-28 z"
       id="path13"
       inkscape:connector-curvature="0"
       style="fill:#0085cf" />
    <path
       d="m 145,317 c 5,-2 9,7 8,11 -7,12 -14,24 -19,37 -8,-11 -14,-24 -20,-35 9,-7 20,-10 31,-13 z"
       id="path15"
       inkscape:connector-curvature="0"
       style="fill:#0085cf" />
    <path
       d="m 418,431 c 1,-1 3,0 3,1 6,10 11,20 15,31 1,1 0,2 -1,2 -34,20 -68,40 -103,59 23,-25 43,-53 57,-84 10,-1 20,-3 29,-9 z"
       id="path17"
       inkscape:connector-curvature="0"
       style="fill:#0085cf" />
  </g>
  <defs
     id="defs19" />
</svg>
