<?xml version="1.0" encoding="UTF-8" standalone="no"?>
<svg
   xmlns:dc="http://purl.org/dc/elements/1.1/"
   xmlns:cc="http://creativecommons.org/ns#"
   xmlns:rdf="http://www.w3.org/1999/02/22-rdf-syntax-ns#"
   xmlns:svg="http://www.w3.org/2000/svg"
   xmlns="http://www.w3.org/2000/svg"
   xmlns:sodipodi="http://sodipodi.sourceforge.net/DTD/sodipodi-0.dtd"
   xmlns:inkscape="http://www.inkscape.org/namespaces/inkscape"
   version="1.1"
   x="0px"
   y="0px"
   width="567"
   height="567"
   viewBox="0, 0, 567, 567"
   id="svg2"
   inkscape:version="0.48.2 r9819"
   sodipodi:docname="famous-half2.svg">
  <metadata
     id="metadata14">
    <rdf:RDF>
      <cc:Work
         rdf:about="">
        <dc:format>image/svg+xml</dc:format>
        <dc:type
           rdf:resource="http://purl.org/dc/dcmitype/StillImage" />
      </cc:Work>
    </rdf:RDF>
  </metadata>
  <sodipodi:namedview
     pagecolor="#ffffff"
     bordercolor="#666666"
     borderopacity="1"
     objecttolerance="10"
     gridtolerance="10"
     guidetolerance="10"
     inkscape:pageopacity="0"
     inkscape:pageshadow="2"
     inkscape:window-width="640"
     inkscape:window-height="480"
     id="namedview12"
     showgrid="false"
     inkscape:zoom="0.41622575"
     inkscape:cx="283.5"
     inkscape:cy="283.5"
     inkscape:window-x="0"
     inkscape:window-y="0"
     inkscape:window-maximized="0"
     inkscape:current-layer="svg2" />
  <g
     id="Ebene1">
    <path
       d="M374.79,217.335 C389.08,215.925 403.635,216.085 417.685,219.3 C433.875,222.885 449.04,230.04 463.48,238.015 C504.205,260.95 534.145,301.895 543.925,347.565 C549.115,371.83 549.81,397.325 544.08,421.56 C541.41,433.07 537.76,444.395 532.505,455.005 C525.785,468.71 518.11,482.06 508.31,493.82 C484,523.135 449.32,543.445 412.08,551.12 C402.43,553.125 392.56,553.52 382.76,554.16 C354.38,554.66 325.285,549.325 300.47,535.07 C271,520.97 247.195,496.755 230.645,468.85 C221.77,453.68 212.925,438.495 204.31,423.18 C202.26,419.825 200.65,416.005 197.49,413.51 C195.125,411.285 192.015,409.855 188.78,409.575 C163.095,407.375 138.255,392.255 126.455,369.025 C115.38,348.335 115.815,322.265 126.5,301.495 C136.345,280.68 156.575,265.135 179.31,261.335 C203.09,256.885 228.75,265.115 245.855,282.14 C252.86,289.5 258.985,298 262.365,307.655 C267.24,320.49 268.545,334.69 266.26,348.22 C264.395,360.12 258.255,370.76 251.585,380.59 C250.03,382.815 248.875,385.315 248.565,388.045 C248.425,392.81 251.565,396.73 253.845,400.635 C260.565,412.8 267.91,424.615 274.675,436.76 C288.075,461.7 310.145,482.265 336.815,492.205 C347.7,496.225 359.145,498.74 370.705,499.76 C416.875,503.095 463.665,475.585 483.09,433.545 C488.605,420.42 492.635,406.51 493.75,392.275 C496.995,353.25 477.845,314.05 446.925,290.565 C434.545,281.41 420.27,275.075 405.425,271.15 C402.39,270.315 399.09,269.965 396.525,267.97 C392.56,265.635 389.98,261.68 387.705,257.805 C381.19,246.47 368.723,226.315 368.557,223.913 C368.392,221.512 370.807,217.882 374.79,217.335 M187.2,300.235 C177.81,301.8 169.12,307.445 164.015,315.51 C156.725,326.515 156.52,341.785 163.575,352.945 C170,363.48 182.56,370.325 194.98,368.94 C209.035,368.04 222.49,358.055 226.305,344.32 C227.955,339.155 227.735,333.64 227.2,328.32 C223.555,310.655 205.275,297.14 187.2,300.235 z"
       fill="#158EC1"
       id="path8" />
  </g>
  <defs
     id="defs10" />
</svg>
