<?xml version="1.0" encoding="UTF-8" standalone="no"?>
<svg
   xmlns:dc="http://purl.org/dc/elements/1.1/"
   xmlns:cc="http://creativecommons.org/ns#"
   xmlns:rdf="http://www.w3.org/1999/02/22-rdf-syntax-ns#"
   xmlns:svg="http://www.w3.org/2000/svg"
   xmlns="http://www.w3.org/2000/svg"
   xmlns:sodipodi="http://sodipodi.sourceforge.net/DTD/sodipodi-0.dtd"
   xmlns:inkscape="http://www.inkscape.org/namespaces/inkscape"
   version="1.1"
   x="0px"
   y="0px"
   width="640"
   height="640"
   viewBox="0, 0, 640, 640"
   id="svg2"
   inkscape:version="0.48.2 r9819"
   sodipodi:docname="joda-half1.svg">
  <metadata
     id="metadata17">
    <rdf:RDF>
      <cc:Work
         rdf:about="">
        <dc:format>image/svg+xml</dc:format>
        <dc:type
           rdf:resource="http://purl.org/dc/dcmitype/StillImage" />
      </cc:Work>
    </rdf:RDF>
  </metadata>
  <sodipodi:namedview
     pagecolor="#ffffff"
     bordercolor="#666666"
     borderopacity="1"
     objecttolerance="10"
     gridtolerance="10"
     guidetolerance="10"
     inkscape:pageopacity="0"
     inkscape:pageshadow="2"
     inkscape:window-width="938"
     inkscape:window-height="605"
     id="namedview15"
     showgrid="false"
     inkscape:zoom="0.36875"
     inkscape:cx="320"
     inkscape:cy="320"
     inkscape:window-x="409"
     inkscape:window-y="19"
     inkscape:window-maximized="0"
     inkscape:current-layer="svg2" />
  <g
     id="Ebene1"
     transform="matrix(1.3732724,0,0,1.4134009,-113.89516,-109.32296)">
    <path
       d="m 473,134 c -103,-1 -206,-1 -309,0 -15,16 -30,35 -38,55 108,1 217,0 326,1 32,43 41,102 22,153 -18,52 -65,93 -119,105 -59,14 -123,-10 -161,-56 -30,-35 -43,-84 -37,-129 7,-1 14,-1 20,0 14,29 24,60 38,89 23,1 46,1 70,0 -12,-36 -29,-70 -42,-105 -7,-16 -13,-31 -20,-46 -41,0 -59,0 -103,0 -17,41 -24,89 -13,134 13,59 52,111 104,141 56,32 126,38 186,15 49,-19 91,-56 116,-103 44,-81 28,-190 -40,-254 z"
       id="path11"
       inkscape:connector-curvature="0"
       style="fill:#2d5bac" />
  </g>
  <defs
     id="defs13" />
</svg>
